# xmcd
# Track frame offsets:
# 182
# 13960
# 25105
# 39380
# 58157
# 73282
# 91925
# 107645
# 117655
# 132900
# 145902
# 156305
# 170277
# 181507
#
# Disc length: 2573 seconds
# Revision: 0
# Processed by: cddbd v1.4PL0 Copyright (c) Steve Scherf et al.
# Submitted via: VisiTrax 2.9.5.180 - For more info visit www.synapsa.com
#
DISCID=c10a0b0e
DTITLE=Sean O'Farrell - Always
DYEAR=1993
DGENRE=Irsk
TTITLE0=The way love ought to be
TTITLE1=Eighteen yellow roses
TTITLE2=Lord she sure is good at loving me
TTITLE3=I'd love you to want me
TTITLE4=Those brown eyes
TTITLE5=A soldiers tale
TTITLE6=Every road leads back to you
TTITLE7=Judy
TTITLE8=The champion of 403 Mulberry Drive
TTITLE9=Baby don't you know
TTITLE10=I want to be with you always
TTITLE11=Do you know how much I love you
TTITLE12=Longing to hold you again
TTITLE13=Still
EXTD=
EXTT0=
EXTT1=
EXTT2=
EXTT3=
EXTT4=
EXTT5=
EXTT6=
EXTT7=
EXTT8=
EXTT9=
EXTT10=
EXTT11=
EXTT12=
EXTT13=
PLAYORDER=
